<?xml version="1.0" standalone="no"?>
<!DOCTYPE svg PUBLIC "-//W3C//DTD SVG 20010904//EN"
 "http://www.w3.org/TR/2001/REC-SVG-20010904/DTD/svg10.dtd">
<svg version="1.0" xmlns="http://www.w3.org/2000/svg"
 width="1024.000000pt" height="1024.000000pt" viewBox="0 0 1024.000000 1024.000000"
 preserveAspectRatio="xMidYMid meet">

<g transform="translate(0.000000,1024.000000) scale(0.100000,-0.100000)"
fill="#000000" stroke="none">
<path d="M1536 7739 c-62 -15 -153 -68 -197 -116 -22 -24 -55 -74 -72 -111
l-32 -67 -3 -1012 c-1 -557 1 -1013 5 -1013 3 0 35 10 70 21 l63 22 2 976 3
976 25 49 c32 62 86 108 151 129 46 15 161 17 1213 17 1295 0 1229 3 1308 -68
23 -20 52 -59 64 -87 l24 -50 0 -1840 0 -1840 -24 -50 c-29 -64 -102 -129
-161 -144 -27 -7 -150 -11 -322 -11 l-279 0 -34 -67 c-19 -38 -36 -71 -38 -75
-5 -10 472 -9 603 1 75 5 114 14 158 34 70 32 155 110 191 177 58 106 56 27
56 1965 0 1006 -4 1807 -9 1842 -23 157 -127 281 -279 332 -61 21 -74 21
-1254 20 -679 -1 -1210 -5 -1232 -10z"/>
<path d="M3618 7297 c-101 -24 -186 -49 -198 -59 -29 -25 -27 -73 5 -94 23
-15 31 -14 116 6 50 11 93 20 95 18 4 -5 -70 -97 -409 -511 l-268 -327 -37 29
c-139 109 -277 201 -302 201 -23 0 -52 -26 -161 -142 -74 -78 -263 -279 -421
-445 -159 -167 -288 -311 -288 -321 0 -34 29 -62 64 -62 31 0 60 28 373 358
186 196 361 381 387 410 27 28 52 52 57 52 4 0 78 -52 164 -115 93 -68 166
-115 180 -115 22 0 188 196 685 809 l85 104 3 -94 c2 -81 5 -96 23 -111 27
-23 54 -23 77 0 16 16 20 43 26 212 6 165 4 196 -9 216 -20 32 -35 31 -247
-19z"/>
<path d="M6721 6645 c-75 -44 -110 -107 -111 -201 0 -93 30 -144 160 -264 111
-103 140 -145 140 -199 0 -45 -38 -81 -85 -81 -53 0 -85 36 -85 95 l0 45 -71
0 -72 0 7 -62 c10 -81 25 -116 69 -155 60 -53 140 -66 234 -38 95 28 151 121
140 231 -9 85 -45 142 -163 250 -117 109 -134 134 -134 194 0 51 27 80 74 80
52 0 78 -27 80 -83 l1 -47 65 0 66 0 -6 73 c-4 39 -11 81 -17 92 -49 89 -196
124 -292 70z"/>
<path d="M4660 6223 l0 -438 68 3 69 4 -1 434 -1 434 -67 0 -68 0 0 -437z"/>
<path d="M4930 6225 l0 -435 70 0 71 0 -3 270 c-2 149 -1 270 2 270 3 -1 45
-122 93 -270 l88 -270 70 0 69 0 0 435 0 435 -70 0 -70 0 0 -257 0 -258 -86
258 -87 257 -73 0 -74 0 0 -435z"/>
<path d="M5520 6225 l0 -435 129 0 c174 0 230 21 274 103 21 41 22 51 22 327
0 275 -1 286 -22 326 -48 90 -109 114 -293 114 l-110 0 0 -435z m271 276 c17
-21 19 -45 19 -277 0 -248 0 -253 -22 -278 -19 -21 -34 -26 -78 -28 l-55 -3
-3 309 -2 308 61 -4 c49 -4 66 -9 80 -27z"/>
<path d="M6062 6298 c3 -346 4 -365 24 -409 79 -171 356 -154 409 24 12 41 15
118 15 399 l0 348 -70 0 -70 0 0 -345 c0 -390 -1 -399 -65 -411 -42 -7 -81 14
-95 52 -6 14 -10 173 -10 365 l0 339 -71 0 -70 0 3 -362z"/>
<path d="M7110 6595 l0 -65 70 0 70 0 0 -370 0 -370 70 0 70 0 0 370 0 370 70
0 70 0 0 65 0 65 -210 0 -210 0 0 -65z"/>
<path d="M7620 6226 l0 -434 70 -4 70 -3 0 173 0 172 33 0 34 0 49 -167 50
-168 75 -3 75 -3 -59 181 -58 181 40 44 c47 51 61 95 61 191 0 99 -23 171 -70
215 -49 47 -100 59 -249 59 l-121 0 0 -434z m247 298 c35 -7 53 -53 53 -139 0
-71 -2 -79 -29 -106 -25 -24 -37 -29 -80 -29 l-51 0 0 138 c0 76 2 141 5 143
5 5 65 1 102 -7z"/>
<path d="M8190 6223 l0 -438 67 3 68 3 0 435 0 434 -67 0 -68 0 0 -437z"/>
<path d="M8519 6228 l-85 -433 64 -3 c35 -2 66 -1 68 1 3 2 12 45 21 96 l16
91 83 0 c94 0 86 9 105 -112 l13 -78 68 0 c37 0 68 4 68 8 0 11 -160 823 -166
845 -5 14 -18 17 -88 17 l-82 0 -85 -432z m200 62 c12 -80 25 -156 28 -168 5
-23 4 -24 -58 -20 -35 2 -63 8 -63 13 11 84 60 333 64 327 4 -4 17 -72 29
-152z"/>
<path d="M9045 6225 l0 -435 180 0 180 0 -3 65 -4 65 -109 0 -109 0 0 370 0
370 -67 0 -68 0 0 -435z"/>
<path d="M3550 6508 c-20 -21 -20 -31 -20 -675 l0 -653 -55 0 -55 0 0 443 c0
417 -1 445 -18 460 -16 14 -43 17 -169 17 -140 0 -151 -1 -169 -21 -18 -20
-19 -45 -22 -460 l-3 -439 -49 0 -50 0 0 288 c0 267 -1 290 -18 305 -16 14
-43 17 -170 17 -139 0 -154 -2 -172 -20 -19 -19 -20 -33 -20 -302 l0 -283 -33
-15 c-25 -12 -33 -22 -35 -48 -2 -22 3 -41 14 -53 17 -18 42 -19 739 -19 800
0 759 -3 759 65 0 43 -22 65 -66 65 l-28 0 0 655 c0 642 0 655 -20 675 -18 18
-33 20 -170 20 -141 0 -150 -1 -170 -22z m228 -112 c1 -3 2 -278 2 -611 l0
-605 -60 0 -60 0 0 613 0 612 57 -2 c32 0 59 -4 61 -7z m-478 -821 l0 -395
-65 0 -65 0 0 395 0 395 65 0 65 0 0 -395z m-490 -155 l0 -240 -60 0 -60 0 0
240 0 240 60 0 60 0 0 -240z"/>
<path d="M6114 5499 c-104 -14 -171 -68 -199 -161 -22 -76 -22 -630 0 -706 34
-112 113 -164 252 -163 71 0 94 4 139 26 104 51 124 108 124 357 l0 178 -125
0 -125 0 0 -75 0 -75 45 0 45 0 0 -95 c0 -64 -5 -105 -15 -124 -29 -57 -119
-65 -166 -15 l-24 26 0 315 0 315 33 29 c37 33 77 37 123 14 34 -18 49 -50 49
-106 l0 -39 81 0 82 0 -6 69 c-14 171 -128 255 -313 230z"/>
<path d="M4650 4980 l0 -510 225 0 225 0 0 80 0 80 -145 0 -145 0 0 150 0 150
110 0 110 0 0 70 0 70 -110 0 -110 0 0 136 0 135 140 -3 140 -3 0 78 0 77
-220 0 -220 0 0 -510z"/>
<path d="M5220 4980 l0 -511 78 3 77 3 0 322 c0 177 1 320 3 319 1 -2 39 -108
83 -237 44 -129 94 -273 111 -321 l31 -88 78 0 79 0 0 510 0 510 -81 0 -80 0
3 -305 c2 -168 1 -305 -2 -305 -3 1 -50 137 -106 303 l-100 302 -87 3 -87 3 0
-511z"/>
<path d="M6580 4980 l0 -510 80 0 80 0 0 510 0 510 -80 0 -80 0 0 -510z"/>
<path d="M6900 4980 l0 -510 80 0 81 0 -3 325 c-2 178 0 321 3 317 3 -4 55
-150 115 -324 l108 -318 78 0 78 0 0 510 0 510 -80 0 -81 0 3 -300 c2 -165 1
-300 -2 -300 -3 0 -50 134 -105 298 l-100 297 -87 3 -88 3 0 -511z"/>
<path d="M7602 4983 l3 -508 223 -2 222 -2 0 79 0 80 -145 0 -145 0 0 150 0
150 110 0 110 0 0 70 0 70 -110 0 -111 0 3 133 3 132 138 0 137 0 0 78 0 77
-220 0 -220 0 2 -507z"/>
<path d="M8170 4980 l0 -510 220 0 220 0 0 80 0 80 -140 0 -140 0 0 150 0 150
110 0 110 0 0 70 0 70 -110 0 -110 0 0 135 0 136 138 -2 c75 0 136 2 135 5 -2
3 -3 38 -3 76 l0 70 -215 0 -215 0 0 -510z"/>
<path d="M8730 4980 l0 -510 80 0 80 0 0 201 0 200 41 -3 42 -3 60 -197 60
-198 84 0 c45 0 83 3 83 8 0 4 -31 101 -69 215 l-68 208 37 29 c74 58 105 185
81 325 -15 83 -39 132 -85 173 -55 48 -118 62 -283 62 l-143 0 0 -510z m285
356 c48 -21 66 -54 72 -138 9 -136 -30 -188 -144 -188 l-53 0 0 170 0 170 45
0 c25 0 61 -6 80 -14z"/>
<path d="M1543 5438 c-6 -7 -18 -56 -27 -109 l-17 -95 -69 -24 -68 -24 -57 50
c-112 97 -91 96 -195 2 -51 -46 -96 -93 -101 -106 -7 -19 1 -38 50 -111 l60
-88 -26 -64 c-14 -35 -26 -65 -27 -66 0 0 -43 -6 -95 -12 -139 -17 -131 -8
-131 -166 0 -154 -3 -148 95 -159 139 -15 128 -9 154 -85 l23 -69 -57 -86
c-44 -66 -56 -91 -49 -104 17 -34 173 -172 193 -172 12 0 54 24 95 54 l73 55
65 -27 64 -26 16 -93 c9 -52 21 -100 28 -108 17 -20 272 -22 287 -2 5 6 17 54
26 106 9 52 18 95 19 96 2 1 29 14 61 28 l59 27 82 -55 c45 -30 88 -55 95 -55
14 0 188 157 195 177 3 7 -22 53 -54 103 -48 72 -58 94 -50 108 6 9 19 40 29
67 l19 50 97 12 c54 7 104 18 111 24 19 16 20 261 1 277 -6 6 -57 16 -112 23
l-100 12 -29 63 -28 63 61 88 c34 48 61 93 61 99 0 19 -186 184 -206 184 -11
0 -52 -27 -92 -59 l-74 -59 -51 23 c-29 12 -60 25 -69 28 -10 4 -18 14 -18 24
-1 51 -21 167 -31 179 -16 19 -272 20 -286 2z m262 -476 c91 -35 156 -95 202
-186 38 -73 44 -198 13 -278 -28 -76 -104 -159 -177 -195 -80 -38 -203 -44
-285 -13 -155 58 -258 236 -229 392 41 224 272 360 476 280z"/>
<path d="M2667 4376 c-3 -7 -9 -35 -12 -62 -10 -68 -18 -79 -65 -93 -42 -12
-42 -12 -92 30 l-50 42 -30 -30 -30 -31 26 -45 c33 -56 28 -84 -24 -131 -21
-19 -36 -36 -34 -39 3 -2 -1 -23 -8 -45 -11 -37 -17 -42 -50 -47 -21 -3 -56
-8 -78 -11 -32 -5 -41 -11 -46 -31 -8 -32 2 -173 13 -184 5 -5 39 -12 77 -16
l68 -8 18 -46 17 -47 -39 -62 -40 -62 68 -69 c38 -38 74 -69 82 -69 7 0 37 18
66 40 l54 41 38 -18 c49 -23 50 -24 58 -91 4 -31 12 -62 18 -69 14 -17 178
-18 201 0 9 7 20 38 26 76 6 35 12 64 13 65 2 1 20 9 41 19 l38 17 55 -35 c30
-19 60 -35 67 -35 6 1 43 30 81 65 l68 63 -41 61 c-23 33 -41 63 -41 68 0 4 7
26 16 49 15 40 17 42 72 48 109 13 102 4 102 121 0 117 8 107 -102 120 -55 7
-56 8 -72 49 -9 23 -16 45 -16 49 0 5 19 35 42 68 l42 59 -64 65 c-36 36 -72
68 -82 71 -11 3 -34 -7 -60 -29 -62 -49 -64 -50 -112 -32 -43 17 -44 17 -50
77 -11 92 -5 88 -121 88 -78 0 -104 -3 -108 -14z m186 -340 c134 -48 203 -204
147 -334 -85 -197 -350 -202 -453 -8 -30 56 -30 164 0 221 58 110 190 162 306
121z"/>
<path d="M7750 3940 l0 -280 45 0 45 0 0 280 0 280 -45 0 -45 0 0 -280z"/>
<path d="M4800 4059 c-14 -6 -35 -20 -47 -31 l-23 -21 0 26 c0 24 -4 27 -35
27 l-35 0 0 -275 0 -275 40 0 40 0 0 93 0 94 50 -25 c40 -20 58 -23 94 -18 60
9 106 42 134 96 20 39 23 56 19 122 -3 62 -9 85 -30 116 -43 66 -138 98 -207
71z m95 -75 c54 -25 80 -113 54 -181 -26 -68 -90 -98 -148 -69 -41 21 -61 63
-61 126 0 61 20 104 58 124 35 20 56 20 97 0z"/>
<path d="M5244 4051 c-102 -47 -141 -188 -83 -303 45 -89 163 -122 260 -73 26
14 79 79 79 97 0 5 -17 8 -38 8 -28 0 -45 -7 -62 -25 -59 -63 -170 -31 -182
53 l-3 23 145 2 145 2 -4 45 c-6 86 -40 141 -106 171 -51 24 -99 23 -151 0z
m121 -66 c29 -14 55 -50 55 -75 0 -6 -45 -10 -105 -10 l-105 0 13 33 c8 19 27
39 48 49 42 22 52 22 94 3z"/>
<path d="M5731 4056 c-13 -7 -30 -24 -37 -37 -13 -24 -13 -24 -14 9 0 31 -2
32 -40 32 l-40 0 0 -200 0 -200 40 0 40 0 0 108 c0 59 5 124 10 144 13 46 52
78 96 78 33 0 34 1 34 40 0 39 -1 40 -32 40 -18 -1 -44 -7 -57 -14z"/>
<path d="M5965 4055 c-46 -23 -65 -52 -65 -97 0 -57 36 -90 125 -112 39 -9 80
-24 93 -32 30 -20 29 -59 -3 -80 -45 -30 -145 0 -145 43 0 9 -14 13 -44 13
l-45 0 9 -31 c20 -68 76 -102 170 -102 77 0 122 20 151 66 46 74 -1 142 -117
171 -81 20 -114 39 -114 65 0 28 28 46 72 45 40 -1 78 -26 78 -51 0 -9 13 -13
40 -13 31 0 40 4 40 18 0 31 -40 83 -75 98 -45 18 -132 18 -170 -1z"/>
<path d="M6454 4061 c-40 -10 -76 -37 -105 -80 -21 -30 -24 -47 -24 -121 0
-78 3 -91 28 -129 70 -106 234 -106 304 0 55 83 39 225 -32 288 -50 44 -105
57 -171 42z m90 -75 c59 -24 84 -123 52 -200 -29 -70 -102 -87 -158 -37 -28
25 -32 35 -36 93 -5 78 14 123 61 143 40 18 41 18 81 1z"/>
<path d="M6950 4054 c-19 -8 -45 -25 -57 -36 l-23 -21 0 31 c0 30 -2 32 -35
32 l-35 0 0 -200 0 -200 39 0 39 0 4 134 c3 132 4 135 31 164 33 34 68 44 107
30 42 -14 50 -46 50 -193 l0 -135 43 0 42 0 -5 164 c-5 158 -6 165 -30 192
-28 30 -78 54 -112 54 -13 -1 -39 -8 -58 -16z"/>
<path d="M7378 4059 c-42 -12 -98 -69 -98 -99 0 -16 7 -20 35 -20 19 0 35 5
35 10 0 24 41 50 80 50 66 0 117 -66 70 -91 -8 -4 -53 -14 -99 -23 -116 -21
-146 -52 -142 -144 2 -36 55 -80 105 -87 52 -8 117 8 141 35 l19 21 20 -26
c29 -34 90 -40 94 -8 2 12 -6 31 -17 42 -19 19 -21 33 -21 129 0 122 -14 164
-66 194 -39 23 -108 30 -156 17z m142 -240 c0 -61 -41 -99 -107 -99 -55 0 -73
12 -73 50 0 38 29 60 91 67 30 3 61 9 69 14 8 5 16 9 18 9 1 0 2 -18 2 -41z"/>
<path d="M1234 3735 c13 -127 105 -259 221 -316 82 -40 171 -49 513 -49 251 0
296 4 262 25 -6 4 -24 33 -40 66 l-30 59 -283 0 c-331 0 -352 4 -428 80 -45
45 -79 119 -79 171 0 15 -12 18 -71 21 l-71 3 6 -60z"/>
</g>
</svg>
