<?xml version="1.0" standalone="no"?>
<!DOCTYPE svg PUBLIC "-//W3C//DTD SVG 20010904//EN"
 "http://www.w3.org/TR/2001/REC-SVG-20010904/DTD/svg10.dtd">
<svg version="1.0" xmlns="http://www.w3.org/2000/svg"
 width="1024.000000pt" height="1024.000000pt" viewBox="0 0 1024.000000 1024.000000"
 preserveAspectRatio="xMidYMid meet">

<g transform="translate(0.000000,1024.000000) scale(0.100000,-0.100000)"
fill="#000000" stroke="none">
<path d="M3415 7797 c-57 -8 -72 -12 -155 -51 -36 -16 -160 -113 -160 -125 0
-3 -12 -19 -26 -36 -38 -43 -90 -160 -103 -229 -17 -92 -15 -2740 2 -2734 6 3
51 18 100 33 l87 29 0 1291 c0 947 3 1307 12 1350 24 120 138 240 253 265 36
8 536 10 1730 8 l1680 -3 48 -28 c26 -16 63 -41 81 -57 39 -34 92 -131 103
-186 9 -44 11 -4917 2 -4951 -3 -12 -8 -26 -12 -29 -4 -4 -7 -13 -7 -21 0 -34
-89 -128 -155 -165 -54 -29 -145 -38 -458 -41 l-308 -4 -23 -39 c-12 -21 -39
-64 -60 -94 l-38 -55 407 -3 c390 -2 410 -1 478 19 175 52 326 208 372 384 13
52 15 342 15 2520 0 2380 -1 2463 -19 2537 -19 75 -67 169 -119 233 -37 45
-151 129 -207 152 -108 46 -91 45 -1820 42 -902 -2 -1667 -8 -1700 -12z"/>
<path d="M6595 7233 c-11 -2 -67 -15 -125 -29 -58 -14 -112 -27 -120 -29 -99
-20 -174 -37 -179 -39 -3 -2 -23 -7 -44 -10 -54 -9 -72 -20 -87 -55 -14 -35
-8 -69 19 -102 15 -19 28 -23 72 -23 30 0 77 8 104 17 28 9 64 18 80 21 17 2
45 8 64 12 34 7 34 6 -47 -87 -45 -52 -122 -139 -172 -194 -49 -55 -124 -140
-167 -190 -42 -49 -100 -115 -127 -145 -28 -31 -67 -74 -86 -96 -19 -21 -66
-75 -105 -119 -38 -44 -72 -82 -75 -85 -3 -3 -43 -49 -89 -102 -45 -54 -86
-98 -90 -98 -7 0 -118 82 -323 238 -82 62 -102 72 -136 72 -49 0 -25 23 -633
-600 -682 -699 -639 -651 -639 -705 0 -58 32 -95 82 -95 36 0 41 5 503 485
132 137 341 352 465 477 l225 228 210 -157 c247 -186 253 -188 331 -113 47 46
350 387 438 495 27 33 57 67 67 75 9 8 43 47 75 85 62 74 132 154 308 349 60
67 111 123 114 126 4 5 -2 -41 -14 -107 -11 -57 4 -102 39 -123 42 -26 69 -25
100 4 30 28 29 26 52 196 9 69 18 134 20 145 30 196 27 252 -16 275 -18 10
-57 11 -94 3z"/>
<path d="M6284 6134 c-35 -8 -67 -50 -74 -98 -3 -24 -4 -433 -2 -910 l4 -866
-69 0 -70 0 -7 94 c-4 51 -6 330 -5 620 2 479 0 528 -15 545 -15 16 -41 19
-220 25 -233 9 -253 4 -283 -62 -15 -33 -16 -94 -14 -629 l3 -593 -64 0 -64 0
-11 58 c-8 38 -11 171 -9 400 2 309 1 345 -15 371 l-17 28 -203 6 c-226 7
-240 4 -273 -53 -20 -34 -21 -47 -18 -421 l4 -386 -29 -6 c-78 -16 -109 -99
-55 -150 l28 -27 1027 0 c731 0 1033 3 1050 11 25 11 47 47 47 75 0 28 -28 70
-55 82 -14 7 -48 12 -74 12 l-48 0 -7 108 c-4 59 -6 467 -5 908 3 746 2 803
-14 828 l-17 26 -138 0 c-75 0 -166 2 -202 4 -36 3 -75 2 -86 0z m255 -194
l26 0 -1 -788 c-1 -433 -2 -811 -3 -839 l-1 -53 -79 0 -78 0 -7 31 c-3 17 -6
398 -6 847 l0 815 61 -7 c34 -3 74 -6 88 -6z m-704 -586 l50 -6 1 -544 1 -544
-82 0 -82 0 -7 38 c-3 20 -6 268 -6 550 l0 512 38 0 c20 0 60 -3 87 -6z m-630
-426 c1 -2 5 -153 7 -335 l4 -333 -88 0 -88 0 0 339 0 340 81 -4 c44 -2 82 -5
84 -7z"/>
<path d="M3422 4643 c-12 -2 -26 -12 -31 -21 -10 -20 -32 -130 -37 -191 -9
-86 -21 -96 -185 -147 -9 -3 -38 13 -69 38 -157 127 -164 129 -250 63 -82 -63
-205 -201 -204 -228 0 -12 32 -68 72 -123 l71 -102 -30 -72 c-16 -40 -29 -78
-29 -85 0 -24 -3 -25 -170 -56 -58 -10 -110 -21 -117 -24 -23 -8 -34 -87 -32
-228 1 -118 5 -146 19 -167 10 -14 27 -26 37 -27 27 -2 181 -32 224 -43 30 -8
38 -16 49 -52 8 -24 24 -63 36 -88 23 -48 25 -43 -20 -103 -51 -68 -106 -164
-106 -185 0 -29 221 -259 258 -269 30 -7 54 6 144 80 90 74 111 84 141 70 12
-6 48 -21 80 -33 31 -12 60 -26 63 -31 3 -5 11 -48 19 -96 8 -49 20 -108 28
-133 12 -41 16 -46 54 -54 23 -5 107 -5 194 0 l153 9 13 50 c7 28 15 64 17 80
3 17 7 39 9 50 3 11 8 38 11 60 7 43 13 47 142 91 l51 18 109 -72 c76 -50 118
-72 139 -72 26 0 48 17 143 113 92 94 112 119 112 144 0 20 -22 62 -65 129
-36 54 -64 106 -61 114 34 99 59 166 65 173 4 4 64 17 132 28 171 29 163 18
167 231 2 116 0 179 -8 193 -9 18 -30 25 -113 39 -173 30 -176 32 -202 101
-13 33 -29 74 -36 92 -12 29 -11 35 17 75 16 24 32 48 37 53 44 57 67 105 67
138 0 36 -8 46 -117 153 -65 62 -126 114 -136 114 -26 0 -51 -15 -144 -87 -46
-34 -90 -63 -100 -63 -21 0 -164 49 -179 61 -10 8 -22 58 -28 114 -1 6 -8 43
-15 83 -19 100 -26 102 -218 101 -81 -1 -158 -4 -171 -6z m379 -710 c147 -69
246 -184 283 -329 21 -80 20 -140 -3 -241 -45 -200 -211 -345 -426 -374 -81
-10 -96 -9 -197 15 -52 13 -161 83 -210 134 -150 157 -183 367 -90 560 85 177
262 282 466 277 84 -2 99 -6 177 -42z"/>
<path d="M5012 3128 c-6 -7 -13 -27 -17 -43 -3 -17 -13 -57 -22 -91 l-15 -60
-58 -23 -57 -23 -39 20 c-21 11 -54 32 -73 46 -36 27 -66 32 -90 17 -12 -8 -9
-23 17 -93 18 -46 32 -91 32 -100 0 -8 -34 -47 -75 -86 -41 -39 -70 -74 -65
-77 5 -3 0 -28 -12 -58 -11 -29 -21 -58 -21 -64 0 -7 -2 -13 -4 -13 -28 0
-201 -56 -210 -68 -17 -21 -17 -221 0 -243 7 -9 52 -23 111 -35 63 -12 102
-25 107 -34 4 -8 17 -39 28 -69 l21 -53 -49 -74 c-76 -113 -77 -104 25 -200
49 -46 97 -86 107 -90 14 -4 66 23 87 46 3 3 23 18 46 33 l41 27 62 -22 c71
-25 77 -35 91 -131 5 -32 16 -69 25 -83 15 -23 19 -24 139 -24 87 0 127 4 134
13 5 6 13 32 16 57 18 122 25 136 69 155 94 39 76 42 189 -32 37 -23 73 -43
79 -43 21 0 179 169 179 191 0 11 -17 46 -38 77 -66 97 -65 91 -32 168 16 38
32 69 37 70 86 18 172 39 186 46 15 8 17 25 17 136 0 131 -6 154 -37 157 -10
1 -51 7 -91 14 -81 14 -87 20 -117 107 l-18 52 31 45 c17 25 40 59 53 76 19
26 20 34 10 59 -16 37 -149 168 -180 175 -18 4 -41 -7 -95 -44 -78 -55 -89
-57 -171 -20 -42 19 -44 21 -50 76 -4 31 -13 75 -20 98 l-12 42 -130 3 c-97 2
-133 -1 -141 -10z m233 -493 c29 -9 59 -22 65 -30 7 -8 18 -15 25 -15 22 0 95
-83 121 -137 53 -110 50 -217 -10 -331 -24 -46 -98 -110 -161 -139 -51 -24
-73 -28 -140 -27 -122 0 -188 38 -293 168 -27 34 -45 102 -45 178 1 65 5 86
32 141 77 159 246 238 406 192z"/>
</g>
</svg>
